<?xml version="1.0" standalone="no"?>
<!DOCTYPE svg PUBLIC "-//W3C//DTD SVG 20010904//EN"
 "http://www.w3.org/TR/2001/REC-SVG-20010904/DTD/svg10.dtd">
<svg version="1.0" xmlns="http://www.w3.org/2000/svg"
 width="512.000000pt" height="465.000000pt" viewBox="0 0 512.000000 465.000000"
 preserveAspectRatio="xMidYMid meet">
<metadata>
Created by potrace 1.11, written by Peter Selinger 2001-2013
</metadata>
<g transform="translate(0.000000,465.000000) scale(0.100000,-0.100000)"
fill="#000000" stroke="none">
<path d="M500 2530 l0 -1470 320 0 320 0 0 -435 c0 -291 3 -435 10 -435 6 0
303 196 659 435 l649 435 1081 0 1081 0 0 1470 0 1470 -2060 0 -2060 0 0
-1470z m3720 0 l0 -1070 -940 0 -940 0 -390 -260 c-214 -143 -392 -260 -395
-260 -3 0 -5 117 -5 260 l0 260 -325 0 -325 0 0 1070 0 1070 1660 0 1660 0 0
-1070z"/>
</g>
</svg>
